<svg id="Capa_1" enable-background="new 0 0 512 512" height="512" viewBox="0 0 512 512" width="512" xmlns="http://www.w3.org/2000/svg"><circle cx="256" cy="256" fill="#4a7aff" r="256"/><path d="m510.665 282.292-117.983-117.982-181.73 26.087-144.368 152.658 168.05 168.05c7.047.583 14.169.895 21.366.895 132.508 0 241.501-100.675 254.665-229.708z" fill="#0053bf"/><path d="m256.001 216.407c35.064 0 63.489 28.425 63.49 63.489l115.51.001c0-98.859-80.141-179-179.001-179.001-98.859 0-179.001 80.14-179.001 178.999l115.512.001c.001-35.064 28.426-63.489 63.49-63.489z" fill="#bfe1ff"/><path d="m256 100.896c-.135 0-.27.005-.405.005v115.517c.136-.001.27-.01.406-.01 35.064 0 63.489 28.425 63.49 63.489l115.51.001c0-98.86-80.141-179.002-179.001-179.002z" fill="#87c7ff"/><path d="m256.001 216.407c35.064 0 63.489 28.425 63.49 63.489h79.156c0-78.781-63.865-142.646-142.647-142.647-78.782 0-142.647 63.864-142.647 142.646h79.158c.001-35.063 28.426-63.488 63.49-63.488z" fill="#fe6a16"/><path d="m256 137.25c-.135 0-.27.005-.405.005v79.162c.136-.001.269-.01.405-.01 35.064 0 63.489 28.425 63.49 63.489h79.156c.001-78.781-63.864-142.646-142.646-142.646z" fill="#f24500"/><path d="m256 216.407c35.064 0 63.49 28.425 63.49 63.489h40.687c0-57.535-46.641-104.176-104.176-104.177-57.535 0-104.177 46.641-104.177 104.176h40.687c0-35.063 28.425-63.488 63.489-63.488z" fill="#ffce00"/><path d="m256 175.72c-.135 0-.27.005-.405.005v40.692c.135-.001.269-.01.405-.01 35.064 0 63.49 28.425 63.49 63.49h40.687c0-57.535-46.642-104.177-104.177-104.177z" fill="#fdba12"/><path d="m144.848 350.726c30.491 0 55.209-24.718 55.209-55.209s-24.718-55.209-55.209-55.209c-22.868 0-42.488 13.903-50.87 33.718-1.425-.16-2.871-.25-4.339-.25-21.249 0-38.475 17.226-38.475 38.475s17.226 38.475 38.475 38.475z" fill="#fff"/><path d="m367.152 350.726c-30.491 0-55.209-24.718-55.209-55.209s24.718-55.209 55.209-55.209c22.868 0 42.488 13.903 50.87 33.718 1.425-.16 2.871-.25 4.339-.25 21.249 0 38.475 17.226 38.475 38.475s-17.226 38.475-38.475 38.475z" fill="#e9edf5"/></svg>